<svg width="114" height="82" viewBox="0 0 114 82" fill="none" xmlns="http://www.w3.org/2000/svg">
<path d="M0.1875 81L9.84375 35.3125H22.4062C25.2812 35.3125 27.7604 35.6667 29.8438 36.375C31.9271 37.0833 33.5312 38.1875 34.6562 39.6875C35.8021 41.1875 36.375 43.1458 36.375 45.5625C36.375 47.625 35.9583 49.4583 35.125 51.0625C34.3125 52.6458 33.1458 53.9583 31.625 55C30.125 56.0208 28.3229 56.7396 26.2188 57.1562V57.4375C28.3229 58 30.0312 59.0417 31.3438 60.5625C32.6562 62.0625 33.3125 64.0208 33.3125 66.4375C33.3125 69.7292 32.5312 72.4583 30.9688 74.625C29.4271 76.7708 27.3125 78.375 24.625 79.4375C21.9583 80.4792 18.9167 81 15.5 81H0.1875ZM8.90625 74.7188H15.9062C17.9062 74.7188 19.6354 74.4062 21.0938 73.7812C22.5729 73.1562 23.7083 72.2292 24.5 71C25.3125 69.7708 25.7188 68.2604 25.7188 66.4688C25.7188 64.5729 25.125 63.0521 23.9375 61.9062C22.7708 60.7604 20.8958 60.1875 18.3125 60.1875H12L8.90625 74.7188ZM13.25 54.1562H19.5C21.2708 54.1562 22.8438 53.9062 24.2188 53.4062C25.6146 52.8854 26.7083 52.0938 27.5 51.0312C28.3125 49.9479 28.7188 48.5729 28.7188 46.9062C28.7188 45.1562 28.1562 43.8229 27.0312 42.9062C25.9271 41.9896 24.1562 41.5312 21.7188 41.5312H15.9375L13.25 54.1562Z" fill="white"/>
<path d="M113.813 3L104.156 48.6875H91.5938C88.7188 48.6875 86.2396 48.3333 84.1562 47.625C82.0729 46.9167 80.4688 45.8125 79.3438 44.3125C78.1979 42.8125 77.625 40.8542 77.625 38.4375C77.625 36.375 78.0417 34.5417 78.875 32.9375C79.6875 31.3542 80.8542 30.0417 82.375 29C83.875 27.9792 85.6771 27.2604 87.7812 26.8438V26.5625C85.6771 26 83.9688 24.9583 82.6562 23.4375C81.3438 21.9375 80.6875 19.9792 80.6875 17.5625C80.6875 14.2708 81.4688 11.5417 83.0312 9.375C84.5729 7.22917 86.6875 5.625 89.375 4.5625C92.0417 3.52083 95.0833 3 98.5 3H113.813ZM105.094 9.28125H98.0938C96.0938 9.28125 94.3646 9.59375 92.9062 10.2188C91.4271 10.8438 90.2917 11.7708 89.5 13C88.6875 14.2292 88.2812 15.7396 88.2812 17.5312C88.2812 19.4271 88.875 20.9479 90.0625 22.0938C91.2292 23.2396 93.1042 23.8125 95.6875 23.8125H102L105.094 9.28125ZM100.75 29.8438H94.5C92.7292 29.8438 91.1562 30.0938 89.7812 30.5938C88.3854 31.1146 87.2917 31.9062 86.5 32.9687C85.6875 34.0521 85.2812 35.4271 85.2812 37.0937C85.2812 38.8437 85.8438 40.1771 86.9688 41.0938C88.0729 42.0104 89.8438 42.4688 92.2812 42.4688H98.0625L100.75 29.8438Z" fill="#0078F9"/>
<line x1="41.9655" y1="21.9138" x2="62.9655" y2="1.91379" stroke="black" stroke-width="3"/>
<line x1="65.488" y1="2.81062" x2="72.488" y2="57.8106" stroke="white" stroke-width="3"/>
<line x1="72.1149" y1="59.0034" x2="52.715" y2="80.559" stroke="black" stroke-width="3"/>
<line x1="44.4816" y1="22.7661" x2="53.4816" y2="79.7661" stroke="#0078F9" stroke-width="3"/>
</svg>